<mxfile host="app.diagrams.net" modified="2022-08-03T07:12:42.065Z" agent="5.0 (Windows NT 10.0; Win64; x64) AppleWebKit/537.36 (KHTML, like Gecko) Chrome/103.0.0.0 Safari/537.36" etag="O-Jg306nJLgHAu5PjU4f" version="20.2.2" type="github">
  <diagram id="C5RBs43oDa-KdzZeNtuy" name="Page-1">
    <mxGraphModel dx="1237" dy="663" grid="1" gridSize="10" guides="1" tooltips="1" connect="1" arrows="1" fold="1" page="1" pageScale="1" pageWidth="1654" pageHeight="2336" math="0" shadow="0">
      <root>
        <mxCell id="WIyWlLk6GJQsqaUBKTNV-0" />
        <mxCell id="WIyWlLk6GJQsqaUBKTNV-1" parent="WIyWlLk6GJQsqaUBKTNV-0" />
        <mxCell id="IypeiPEMP3SEPU5gkSMs-21" style="edgeStyle=orthogonalEdgeStyle;rounded=0;orthogonalLoop=1;jettySize=auto;html=1;exitX=0.5;exitY=1;exitDx=0;exitDy=0;entryX=0.5;entryY=0;entryDx=0;entryDy=0;" edge="1" parent="WIyWlLk6GJQsqaUBKTNV-1" source="WIyWlLk6GJQsqaUBKTNV-3" target="WIyWlLk6GJQsqaUBKTNV-6">
          <mxGeometry relative="1" as="geometry" />
        </mxCell>
        <mxCell id="WIyWlLk6GJQsqaUBKTNV-3" value="开始购物" style="rounded=1;whiteSpace=wrap;html=1;fontSize=12;glass=0;strokeWidth=1;shadow=0;fillColor=#f8cecc;strokeColor=#b85450;" parent="WIyWlLk6GJQsqaUBKTNV-1" vertex="1">
          <mxGeometry x="875" y="140" width="120" height="40" as="geometry" />
        </mxCell>
        <mxCell id="IypeiPEMP3SEPU5gkSMs-22" style="edgeStyle=orthogonalEdgeStyle;rounded=0;orthogonalLoop=1;jettySize=auto;html=1;exitX=0;exitY=0.5;exitDx=0;exitDy=0;entryX=1;entryY=0.5;entryDx=0;entryDy=0;" edge="1" parent="WIyWlLk6GJQsqaUBKTNV-1" source="WIyWlLk6GJQsqaUBKTNV-6" target="IypeiPEMP3SEPU5gkSMs-19">
          <mxGeometry relative="1" as="geometry" />
        </mxCell>
        <mxCell id="IypeiPEMP3SEPU5gkSMs-23" style="edgeStyle=orthogonalEdgeStyle;rounded=0;orthogonalLoop=1;jettySize=auto;html=1;exitX=1;exitY=0.5;exitDx=0;exitDy=0;entryX=0;entryY=0.5;entryDx=0;entryDy=0;" edge="1" parent="WIyWlLk6GJQsqaUBKTNV-1" source="WIyWlLk6GJQsqaUBKTNV-6" target="IypeiPEMP3SEPU5gkSMs-20">
          <mxGeometry relative="1" as="geometry" />
        </mxCell>
        <mxCell id="WIyWlLk6GJQsqaUBKTNV-6" value="进入购物车" style="rhombus;whiteSpace=wrap;html=1;shadow=0;fontFamily=Helvetica;fontSize=12;align=center;strokeWidth=1;spacing=6;spacingTop=-4;" parent="WIyWlLk6GJQsqaUBKTNV-1" vertex="1">
          <mxGeometry x="870" y="230" width="130" height="80" as="geometry" />
        </mxCell>
        <mxCell id="IypeiPEMP3SEPU5gkSMs-11" value="配货方案添加到购物车" style="rhombus;whiteSpace=wrap;html=1;shadow=0;fontFamily=Helvetica;fontSize=12;align=center;strokeWidth=1;spacing=6;spacingTop=-4;fillColor=#dae8fc;strokeColor=#6c8ebf;" vertex="1" parent="WIyWlLk6GJQsqaUBKTNV-1">
          <mxGeometry x="200" y="390" width="130" height="80" as="geometry" />
        </mxCell>
        <mxCell id="IypeiPEMP3SEPU5gkSMs-70" style="edgeStyle=orthogonalEdgeStyle;rounded=0;orthogonalLoop=1;jettySize=auto;html=1;exitX=0.5;exitY=1;exitDx=0;exitDy=0;entryX=0.5;entryY=0;entryDx=0;entryDy=0;" edge="1" parent="WIyWlLk6GJQsqaUBKTNV-1" source="IypeiPEMP3SEPU5gkSMs-12" target="IypeiPEMP3SEPU5gkSMs-69">
          <mxGeometry relative="1" as="geometry" />
        </mxCell>
        <mxCell id="IypeiPEMP3SEPU5gkSMs-12" value="下载购物车列表" style="rhombus;whiteSpace=wrap;html=1;shadow=0;fontFamily=Helvetica;fontSize=12;align=center;strokeWidth=1;spacing=6;spacingTop=-4;fillColor=#dae8fc;strokeColor=#6c8ebf;" vertex="1" parent="WIyWlLk6GJQsqaUBKTNV-1">
          <mxGeometry x="340" y="390" width="130" height="80" as="geometry" />
        </mxCell>
        <mxCell id="IypeiPEMP3SEPU5gkSMs-28" style="edgeStyle=orthogonalEdgeStyle;rounded=0;orthogonalLoop=1;jettySize=auto;html=1;exitX=0;exitY=0.5;exitDx=0;exitDy=0;entryX=1;entryY=0.5;entryDx=0;entryDy=0;" edge="1" parent="WIyWlLk6GJQsqaUBKTNV-1" source="IypeiPEMP3SEPU5gkSMs-19" target="IypeiPEMP3SEPU5gkSMs-27">
          <mxGeometry relative="1" as="geometry" />
        </mxCell>
        <mxCell id="IypeiPEMP3SEPU5gkSMs-19" value="购物车列表（不分页）" style="rounded=0;whiteSpace=wrap;html=1;" vertex="1" parent="WIyWlLk6GJQsqaUBKTNV-1">
          <mxGeometry x="656" y="240" width="120" height="60" as="geometry" />
        </mxCell>
        <mxCell id="IypeiPEMP3SEPU5gkSMs-55" style="edgeStyle=orthogonalEdgeStyle;rounded=0;orthogonalLoop=1;jettySize=auto;html=1;exitX=0.5;exitY=1;exitDx=0;exitDy=0;entryX=0.5;entryY=0;entryDx=0;entryDy=0;" edge="1" parent="WIyWlLk6GJQsqaUBKTNV-1" source="IypeiPEMP3SEPU5gkSMs-20" target="IypeiPEMP3SEPU5gkSMs-26">
          <mxGeometry relative="1" as="geometry" />
        </mxCell>
        <mxCell id="IypeiPEMP3SEPU5gkSMs-56" style="edgeStyle=orthogonalEdgeStyle;rounded=0;orthogonalLoop=1;jettySize=auto;html=1;exitX=0.5;exitY=1;exitDx=0;exitDy=0;entryX=0.5;entryY=0;entryDx=0;entryDy=0;" edge="1" parent="WIyWlLk6GJQsqaUBKTNV-1" source="IypeiPEMP3SEPU5gkSMs-20" target="IypeiPEMP3SEPU5gkSMs-48">
          <mxGeometry relative="1" as="geometry" />
        </mxCell>
        <mxCell id="IypeiPEMP3SEPU5gkSMs-57" style="edgeStyle=orthogonalEdgeStyle;rounded=0;orthogonalLoop=1;jettySize=auto;html=1;exitX=0.5;exitY=1;exitDx=0;exitDy=0;entryX=0.5;entryY=0;entryDx=0;entryDy=0;" edge="1" parent="WIyWlLk6GJQsqaUBKTNV-1" source="IypeiPEMP3SEPU5gkSMs-20" target="IypeiPEMP3SEPU5gkSMs-47">
          <mxGeometry relative="1" as="geometry" />
        </mxCell>
        <mxCell id="IypeiPEMP3SEPU5gkSMs-58" style="edgeStyle=orthogonalEdgeStyle;rounded=0;orthogonalLoop=1;jettySize=auto;html=1;exitX=0.5;exitY=1;exitDx=0;exitDy=0;entryX=0.5;entryY=0;entryDx=0;entryDy=0;" edge="1" parent="WIyWlLk6GJQsqaUBKTNV-1" source="IypeiPEMP3SEPU5gkSMs-20" target="IypeiPEMP3SEPU5gkSMs-46">
          <mxGeometry relative="1" as="geometry" />
        </mxCell>
        <mxCell id="IypeiPEMP3SEPU5gkSMs-20" value="购物车外操作" style="rounded=0;whiteSpace=wrap;html=1;" vertex="1" parent="WIyWlLk6GJQsqaUBKTNV-1">
          <mxGeometry x="1216" y="240" width="120" height="60" as="geometry" />
        </mxCell>
        <mxCell id="IypeiPEMP3SEPU5gkSMs-24" value="是" style="text;html=1;align=center;verticalAlign=middle;resizable=0;points=[];autosize=1;strokeColor=none;fillColor=none;" vertex="1" parent="WIyWlLk6GJQsqaUBKTNV-1">
          <mxGeometry x="816" y="245" width="40" height="30" as="geometry" />
        </mxCell>
        <mxCell id="IypeiPEMP3SEPU5gkSMs-25" value="否" style="text;html=1;align=center;verticalAlign=middle;resizable=0;points=[];autosize=1;strokeColor=none;fillColor=none;" vertex="1" parent="WIyWlLk6GJQsqaUBKTNV-1">
          <mxGeometry x="986" y="244" width="40" height="30" as="geometry" />
        </mxCell>
        <mxCell id="IypeiPEMP3SEPU5gkSMs-63" style="edgeStyle=orthogonalEdgeStyle;rounded=0;orthogonalLoop=1;jettySize=auto;html=1;exitX=0.5;exitY=1;exitDx=0;exitDy=0;entryX=0.5;entryY=0;entryDx=0;entryDy=0;" edge="1" parent="WIyWlLk6GJQsqaUBKTNV-1" source="IypeiPEMP3SEPU5gkSMs-26" target="IypeiPEMP3SEPU5gkSMs-59">
          <mxGeometry relative="1" as="geometry" />
        </mxCell>
        <mxCell id="IypeiPEMP3SEPU5gkSMs-26" value="添加网片到购物车" style="rhombus;whiteSpace=wrap;html=1;shadow=0;fontFamily=Helvetica;fontSize=12;align=center;strokeWidth=1;spacing=6;spacingTop=-4;fillColor=#d5e8d4;strokeColor=#82b366;" vertex="1" parent="WIyWlLk6GJQsqaUBKTNV-1">
          <mxGeometry x="1366" y="390" width="130" height="80" as="geometry" />
        </mxCell>
        <mxCell id="IypeiPEMP3SEPU5gkSMs-49" style="edgeStyle=orthogonalEdgeStyle;rounded=0;orthogonalLoop=1;jettySize=auto;html=1;exitX=0.5;exitY=1;exitDx=0;exitDy=0;entryX=0.5;entryY=0;entryDx=0;entryDy=0;" edge="1" parent="WIyWlLk6GJQsqaUBKTNV-1" source="IypeiPEMP3SEPU5gkSMs-27" target="IypeiPEMP3SEPU5gkSMs-12">
          <mxGeometry relative="1" as="geometry" />
        </mxCell>
        <mxCell id="IypeiPEMP3SEPU5gkSMs-51" style="edgeStyle=orthogonalEdgeStyle;rounded=0;orthogonalLoop=1;jettySize=auto;html=1;exitX=0.5;exitY=1;exitDx=0;exitDy=0;entryX=0.5;entryY=0;entryDx=0;entryDy=0;" edge="1" parent="WIyWlLk6GJQsqaUBKTNV-1" source="IypeiPEMP3SEPU5gkSMs-27" target="IypeiPEMP3SEPU5gkSMs-37">
          <mxGeometry relative="1" as="geometry" />
        </mxCell>
        <mxCell id="IypeiPEMP3SEPU5gkSMs-52" style="edgeStyle=orthogonalEdgeStyle;rounded=0;orthogonalLoop=1;jettySize=auto;html=1;exitX=0.5;exitY=1;exitDx=0;exitDy=0;entryX=0.5;entryY=0;entryDx=0;entryDy=0;" edge="1" parent="WIyWlLk6GJQsqaUBKTNV-1" source="IypeiPEMP3SEPU5gkSMs-27" target="IypeiPEMP3SEPU5gkSMs-38">
          <mxGeometry relative="1" as="geometry" />
        </mxCell>
        <mxCell id="IypeiPEMP3SEPU5gkSMs-53" style="edgeStyle=orthogonalEdgeStyle;rounded=0;orthogonalLoop=1;jettySize=auto;html=1;exitX=0.5;exitY=1;exitDx=0;exitDy=0;entryX=0.5;entryY=0;entryDx=0;entryDy=0;" edge="1" parent="WIyWlLk6GJQsqaUBKTNV-1" source="IypeiPEMP3SEPU5gkSMs-27" target="IypeiPEMP3SEPU5gkSMs-39">
          <mxGeometry relative="1" as="geometry" />
        </mxCell>
        <mxCell id="IypeiPEMP3SEPU5gkSMs-54" style="edgeStyle=orthogonalEdgeStyle;rounded=0;orthogonalLoop=1;jettySize=auto;html=1;exitX=0.5;exitY=1;exitDx=0;exitDy=0;entryX=0.5;entryY=0;entryDx=0;entryDy=0;" edge="1" parent="WIyWlLk6GJQsqaUBKTNV-1" source="IypeiPEMP3SEPU5gkSMs-27" target="IypeiPEMP3SEPU5gkSMs-11">
          <mxGeometry relative="1" as="geometry" />
        </mxCell>
        <mxCell id="IypeiPEMP3SEPU5gkSMs-27" value="购物车内操作" style="rounded=0;whiteSpace=wrap;html=1;" vertex="1" parent="WIyWlLk6GJQsqaUBKTNV-1">
          <mxGeometry x="363" y="240" width="120" height="60" as="geometry" />
        </mxCell>
        <mxCell id="IypeiPEMP3SEPU5gkSMs-37" value="购物车-删除" style="rhombus;whiteSpace=wrap;html=1;shadow=0;fontFamily=Helvetica;fontSize=12;align=center;strokeWidth=1;spacing=6;spacingTop=-4;fillColor=#fff2cc;strokeColor=#d6b656;" vertex="1" parent="WIyWlLk6GJQsqaUBKTNV-1">
          <mxGeometry x="458" y="390" width="130" height="80" as="geometry" />
        </mxCell>
        <mxCell id="IypeiPEMP3SEPU5gkSMs-38" value="单个商品加入购车-数量累加" style="rhombus;whiteSpace=wrap;html=1;shadow=0;fontFamily=Helvetica;fontSize=12;align=center;strokeWidth=1;spacing=6;spacingTop=-4;fillColor=#fff2cc;strokeColor=#d6b656;" vertex="1" parent="WIyWlLk6GJQsqaUBKTNV-1">
          <mxGeometry x="606" y="390" width="130" height="80" as="geometry" />
        </mxCell>
        <mxCell id="IypeiPEMP3SEPU5gkSMs-39" value="单个商品加入购车-直接更新数量" style="rhombus;whiteSpace=wrap;html=1;shadow=0;fontFamily=Helvetica;fontSize=12;align=center;strokeWidth=1;spacing=6;spacingTop=-4;fillColor=#fff2cc;strokeColor=#d6b656;" vertex="1" parent="WIyWlLk6GJQsqaUBKTNV-1">
          <mxGeometry x="756" y="390" width="130" height="80" as="geometry" />
        </mxCell>
        <mxCell id="IypeiPEMP3SEPU5gkSMs-60" style="edgeStyle=orthogonalEdgeStyle;rounded=0;orthogonalLoop=1;jettySize=auto;html=1;exitX=0.5;exitY=1;exitDx=0;exitDy=0;entryX=0.5;entryY=0;entryDx=0;entryDy=0;" edge="1" parent="WIyWlLk6GJQsqaUBKTNV-1" source="IypeiPEMP3SEPU5gkSMs-46" target="IypeiPEMP3SEPU5gkSMs-59">
          <mxGeometry relative="1" as="geometry" />
        </mxCell>
        <mxCell id="IypeiPEMP3SEPU5gkSMs-46" value="购物车-删除" style="rhombus;whiteSpace=wrap;html=1;shadow=0;fontFamily=Helvetica;fontSize=12;align=center;strokeWidth=1;spacing=6;spacingTop=-4;fillColor=#fff2cc;strokeColor=#d6b656;" vertex="1" parent="WIyWlLk6GJQsqaUBKTNV-1">
          <mxGeometry x="933" y="390" width="130" height="80" as="geometry" />
        </mxCell>
        <mxCell id="IypeiPEMP3SEPU5gkSMs-61" style="edgeStyle=orthogonalEdgeStyle;rounded=0;orthogonalLoop=1;jettySize=auto;html=1;exitX=0.5;exitY=1;exitDx=0;exitDy=0;" edge="1" parent="WIyWlLk6GJQsqaUBKTNV-1" source="IypeiPEMP3SEPU5gkSMs-47">
          <mxGeometry relative="1" as="geometry">
            <mxPoint x="1206.0000000000005" y="529.9999999999998" as="targetPoint" />
          </mxGeometry>
        </mxCell>
        <mxCell id="IypeiPEMP3SEPU5gkSMs-47" value="单个商品加入购车-数量累加" style="rhombus;whiteSpace=wrap;html=1;shadow=0;fontFamily=Helvetica;fontSize=12;align=center;strokeWidth=1;spacing=6;spacingTop=-4;fillColor=#fff2cc;strokeColor=#d6b656;" vertex="1" parent="WIyWlLk6GJQsqaUBKTNV-1">
          <mxGeometry x="1079" y="390" width="130" height="80" as="geometry" />
        </mxCell>
        <mxCell id="IypeiPEMP3SEPU5gkSMs-62" style="edgeStyle=orthogonalEdgeStyle;rounded=0;orthogonalLoop=1;jettySize=auto;html=1;exitX=0.5;exitY=1;exitDx=0;exitDy=0;" edge="1" parent="WIyWlLk6GJQsqaUBKTNV-1" source="IypeiPEMP3SEPU5gkSMs-48">
          <mxGeometry relative="1" as="geometry">
            <mxPoint x="1206.0000000000005" y="529.9999999999998" as="targetPoint" />
          </mxGeometry>
        </mxCell>
        <mxCell id="IypeiPEMP3SEPU5gkSMs-48" value="单个商品加入购车-直接更新数量" style="rhombus;whiteSpace=wrap;html=1;shadow=0;fontFamily=Helvetica;fontSize=12;align=center;strokeWidth=1;spacing=6;spacingTop=-4;fillColor=#fff2cc;strokeColor=#d6b656;" vertex="1" parent="WIyWlLk6GJQsqaUBKTNV-1">
          <mxGeometry x="1222" y="390" width="130" height="80" as="geometry" />
        </mxCell>
        <mxCell id="IypeiPEMP3SEPU5gkSMs-64" style="edgeStyle=orthogonalEdgeStyle;rounded=0;orthogonalLoop=1;jettySize=auto;html=1;exitX=1;exitY=0.5;exitDx=0;exitDy=0;entryX=1;entryY=0.5;entryDx=0;entryDy=0;" edge="1" parent="WIyWlLk6GJQsqaUBKTNV-1" source="IypeiPEMP3SEPU5gkSMs-59" target="IypeiPEMP3SEPU5gkSMs-20">
          <mxGeometry relative="1" as="geometry">
            <Array as="points">
              <mxPoint x="1586" y="580" />
              <mxPoint x="1586" y="270" />
            </Array>
          </mxGeometry>
        </mxCell>
        <mxCell id="IypeiPEMP3SEPU5gkSMs-66" style="edgeStyle=orthogonalEdgeStyle;rounded=0;orthogonalLoop=1;jettySize=auto;html=1;exitX=0;exitY=0.5;exitDx=0;exitDy=0;entryX=0.5;entryY=1;entryDx=0;entryDy=0;" edge="1" parent="WIyWlLk6GJQsqaUBKTNV-1" source="IypeiPEMP3SEPU5gkSMs-59" target="IypeiPEMP3SEPU5gkSMs-19">
          <mxGeometry relative="1" as="geometry" />
        </mxCell>
        <mxCell id="IypeiPEMP3SEPU5gkSMs-59" value="进入购物车" style="rhombus;whiteSpace=wrap;html=1;shadow=0;fontFamily=Helvetica;fontSize=12;align=center;strokeWidth=1;spacing=6;spacingTop=-4;" vertex="1" parent="WIyWlLk6GJQsqaUBKTNV-1">
          <mxGeometry x="1136" y="540" width="130" height="80" as="geometry" />
        </mxCell>
        <mxCell id="IypeiPEMP3SEPU5gkSMs-69" value="提交校验订单" style="rounded=0;whiteSpace=wrap;html=1;" vertex="1" parent="WIyWlLk6GJQsqaUBKTNV-1">
          <mxGeometry x="376" y="550" width="120" height="60" as="geometry" />
        </mxCell>
      </root>
    </mxGraphModel>
  </diagram>
</mxfile>
